<?xml version="1.0" encoding="utf-8"?>
<!-- Generator: Adobe Illustrator 21.1.0, SVG Export Plug-In . SVG Version: 6.00 Build 0)  -->
<svg version="1.1" xmlns="http://www.w3.org/2000/svg" xmlns:xlink="http://www.w3.org/1999/xlink" x="0px" y="0px"
	 viewBox="0 0 715 342" style="enable-background:new 0 0 715 342;" xml:space="preserve">
<style type="text/css">
	.st0{fill:#FFFFFF;}
	.st1{font-family:'TimesNewRomanPS-BoldMT';}
	.st2{font-size:69px;}
	.st3{fill:#F62622;}
</style>
<g id="Layer_1">
	<title>crest-top</title>
	<text transform="matrix(1 0 0 1 -1.831055e-04 297.0842)" class="st0 st1 st2">Ishara Puppet Threatre </text>
</g>
<g id="Layer_2">
	<polygon class="st3" points="350.1,111.2 357.5,5.3 364.8,111.2 	"/>
	<polygon class="st3" points="350.3,113.7 339.2,8.2 364.8,111.2 	"/>
	<polygon class="st3" points="350.9,116.2 321.7,14.2 364.8,111.2 	"/>
	<polygon class="st3" points="352,118.5 305.5,23.1 364.8,111.2 	"/>
	<polygon class="st3" points="353.5,120.6 291.2,34.7 364.8,111.2 	"/>
	<polygon class="st3" points="355.3,122.4 279,48.7 364.8,111.2 	"/>
	<polygon class="st3" points="357.4,123.9 269.4,64.5 364.8,111.2 	"/>
	<polygon class="st3" points="359.7,125 262.8,81.8 364.8,111.2 	"/>
	<polygon class="st3" points="362.2,125.6 259.2,99.9 364.8,111.2 	"/>
	<polygon class="st3" points="364.8,125.9 258.9,118.4 364.8,111.2 	"/>
	<polygon class="st3" points="367.3,125.6 261.8,136.7 364.8,111.2 	"/>
	<polygon class="st3" points="369.8,125 267.8,154.2 364.8,111.2 	"/>
	<polygon class="st3" points="372.1,123.9 276.7,170.4 364.8,111.2 	"/>
	<polygon class="st3" points="374.2,122.4 288.3,184.8 364.8,111.2 	"/>
	<polygon class="st3" points="376,120.6 302.3,196.9 364.8,111.2 	"/>
	<polygon class="st3" points="377.5,118.5 318.1,206.5 364.8,111.2 	"/>
	<polygon class="st3" points="378.6,116.2 335.4,213.1 364.8,111.2 	"/>
	<polygon class="st3" points="379.2,113.7 353.5,216.7 364.8,111.2 	"/>
	<polygon class="st3" points="379.4,111.2 372,217 364.8,111.2 	"/>
	<polygon class="st3" points="379.2,108.6 390.3,214.2 364.8,111.2 	"/>
	<polygon class="st3" points="378.6,106.1 407.8,208.2 364.8,111.2 	"/>
	<polygon class="st3" points="377.5,103.8 424,199.2 364.8,111.2 	"/>
	<polygon class="st3" points="376,101.7 438.3,187.6 364.8,111.2 	"/>
	<polygon class="st3" points="374.2,99.9 450.5,173.7 364.8,111.2 	"/>
	<polygon class="st3" points="372.1,98.4 460.1,157.8 364.8,111.2 	"/>
	<polygon class="st3" points="369.8,97.4 466.7,140.6 364.8,111.2 	"/>
	<polygon class="st3" points="367.3,96.7 470.3,122.4 364.8,111.2 	"/>
	<polygon class="st3" points="364.8,96.5 470.6,103.9 364.8,111.2 	"/>
	<polygon class="st3" points="362.2,96.7 467.7,85.6 364.8,111.2 	"/>
	<polygon class="st3" points="359.7,97.4 461.7,68.1 364.8,111.2 	"/>
	<polygon class="st3" points="357.4,98.4 452.8,52 364.8,111.2 	"/>
	<polygon class="st3" points="355.3,99.9 441.2,37.6 364.8,111.2 	"/>
	<polygon class="st3" points="353.5,101.7 427.2,25.4 364.8,111.2 	"/>
	<polygon class="st3" points="352,103.8 411.4,15.9 364.8,111.2 	"/>
	<polygon class="st3" points="350.9,106.1 394.1,9.2 364.8,111.2 	"/>
	<polygon class="st3" points="350.3,108.6 376,5.6 364.8,111.2 	"/>
</g>
</svg>
