<?xml version="1.0" encoding="utf-8"?>
<!-- Generator: Adobe Illustrator 21.1.0, SVG Export Plug-In . SVG Version: 6.00 Build 0)  -->
<svg version="1.1" id="Layer_1" xmlns="http://www.w3.org/2000/svg" xmlns:xlink="http://www.w3.org/1999/xlink" x="0px" y="0px"
	 viewBox="0 0 62 63" style="enable-background:new 0 0 62 63;" xml:space="preserve">
<style type="text/css">
	.st0{fill:#F62622;}
</style>
<g id="_x23_020101ff">
</g>
<g>
	<polygon class="st0" points="26.7,31.8 28.8,2.2 30.8,31.8 	"/>
	<polygon class="st0" points="26.8,32.5 23.7,3 30.8,31.8 	"/>
	<polygon class="st0" points="26.9,33.2 18.8,4.7 30.8,31.8 	"/>
	<polygon class="st0" points="27.2,33.8 14.2,7.2 30.8,31.8 	"/>
	<polygon class="st0" points="27.7,34.4 10.2,10.4 30.8,31.8 	"/>
	<polygon class="st0" points="28.2,34.9 6.8,14.3 30.8,31.8 	"/>
	<polygon class="st0" points="28.8,35.4 4.2,18.7 30.8,31.8 	"/>
	<polygon class="st0" points="29.4,35.7 2.3,23.6 30.8,31.8 	"/>
	<polygon class="st0" points="30.1,35.8 1.3,28.6 30.8,31.8 	"/>
	<polygon class="st0" points="30.8,35.9 1.2,33.8 30.8,31.8 	"/>
	<polygon class="st0" points="31.5,35.8 2,38.9 30.8,31.8 	"/>
	<polygon class="st0" points="32.2,35.7 3.7,43.8 30.8,31.8 	"/>
	<polygon class="st0" points="32.9,35.4 6.2,48.4 30.8,31.8 	"/>
	<polygon class="st0" points="33.4,34.9 9.4,52.4 30.8,31.8 	"/>
	<polygon class="st0" points="34,34.4 13.3,55.8 30.8,31.8 	"/>
	<polygon class="st0" points="34.4,33.8 17.8,58.4 30.8,31.8 	"/>
	<polygon class="st0" points="34.7,33.2 22.6,60.3 30.8,31.8 	"/>
	<polygon class="st0" points="34.9,32.5 27.7,61.3 30.8,31.8 	"/>
	<polygon class="st0" points="34.9,31.8 32.8,61.4 30.8,31.8 	"/>
	<polygon class="st0" points="34.9,31.1 37.9,60.6 30.8,31.8 	"/>
	<polygon class="st0" points="34.7,30.4 42.8,58.9 30.8,31.8 	"/>
	<polygon class="st0" points="34.4,29.7 47.4,56.4 30.8,31.8 	"/>
	<polygon class="st0" points="34,29.2 51.4,53.2 30.8,31.8 	"/>
	<polygon class="st0" points="33.4,28.6 54.8,49.3 30.8,31.8 	"/>
	<polygon class="st0" points="32.9,28.2 57.5,44.8 30.8,31.8 	"/>
	<polygon class="st0" points="32.2,27.9 59.3,40 30.8,31.8 	"/>
	<polygon class="st0" points="31.5,27.7 60.3,34.9 30.8,31.8 	"/>
	<polygon class="st0" points="30.8,27.7 60.4,29.8 30.8,31.8 	"/>
	<polygon class="st0" points="30.1,27.7 59.6,24.7 30.8,31.8 	"/>
	<polygon class="st0" points="29.4,27.9 57.9,19.8 30.8,31.8 	"/>
	<polygon class="st0" points="28.8,28.2 55.4,15.2 30.8,31.8 	"/>
	<polygon class="st0" points="28.2,28.6 52.2,11.2 30.8,31.8 	"/>
	<polygon class="st0" points="27.7,29.2 48.3,7.8 30.8,31.8 	"/>
	<polygon class="st0" points="27.2,29.7 43.9,5.1 30.8,31.8 	"/>
	<polygon class="st0" points="26.9,30.4 39,3.3 30.8,31.8 	"/>
	<polygon class="st0" points="26.8,31.1 34,2.3 30.8,31.8 	"/>
</g>
</svg>
